<svg width="124" height="52" viewBox="0 0 124 52" fill="none" xmlns="http://www.w3.org/2000/svg">
<g filter="url(#filter0_f_49_476)">
<path fill-rule="evenodd" clip-rule="evenodd" d="M69.3958 25.6529C69.3524 25.9311 69.2466 26.1959 69.0863 26.4275C68.926 26.659 68.7154 26.8512 68.4703 26.9898C67.9766 27.3086 67.5447 27.468 67.1077 27.6274C66.177 27.9488 65.1974 28.2702 64.1613 28.643C63.0687 29.0157 62.0891 29.3885 61.215 29.6585C60.1249 30.0313 59.0888 30.3526 58.1041 30.7254C57.3633 31.0425 56.6674 31.4556 56.0345 31.9544C55.4458 32.4877 54.9321 33.0983 54.5073 33.7695C54.0703 34.515 53.7952 35.4766 53.7952 36.5975C53.7952 38.842 54.3402 40.5491 55.4329 41.6161C56.523 42.7396 58.5438 43.2718 61.5389 43.2718C64.5933 43.2718 66.6655 42.6856 67.7607 41.5107C68.8482 40.3357 69.3932 38.6826 69.3932 36.5487V25.6529H69.3958ZM61.5415 2C66.8891 2 70.815 3.01553 73.3217 5.09802C75.831 7.12908 77.0856 9.74119 77.0856 12.8366V39.2148C77.0856 40.2817 76.8696 41.4567 76.4891 42.737C76.1035 44.0225 75.3425 45.1949 74.1418 46.2592C72.9977 47.3313 71.4166 48.2389 69.3984 48.933C67.3802 49.6272 64.7629 50 61.5441 50C58.3304 50 55.708 49.6272 53.6923 48.933C51.6767 48.2389 50.093 47.3313 48.9489 46.2592C47.8846 45.3001 47.0783 44.089 46.6042 42.737C46.2185 41.4592 46 40.2843 46 39.2174V35.001C46 32.7565 46.599 30.674 47.7997 28.8563C49.0003 26.9898 50.6894 25.7095 52.8722 24.9073C53.9623 24.5345 55.2169 24.1618 56.6335 23.681C58.0527 23.1976 59.3588 22.7169 60.6699 22.2927C61.9811 21.8633 63.1252 21.434 64.1048 21.0586C64.6959 20.8221 65.2963 20.6094 65.9044 20.421L66.8866 19.9402C67.2722 19.7268 67.6501 19.4055 68.0332 18.9787C68.4137 18.5545 68.7402 18.0737 69.0153 17.5389C69.306 16.9599 69.4557 16.3203 69.4524 15.6724V13.9627C69.4564 13.3361 69.3249 12.716 69.0667 12.145C68.8508 11.5023 68.4137 10.9161 67.8147 10.3839C67.2156 9.84917 66.3955 9.42239 65.416 9.09845C64.4338 8.78222 63.1278 8.62025 61.6521 8.62025C58.5977 8.62025 56.5795 9.21157 55.4894 10.4354C54.5639 11.5049 54.0189 12.8392 53.9109 14.3329C53.9109 14.6543 53.6383 14.8677 53.3093 14.8677L46.6582 14.9757C46.5002 14.9764 46.3483 14.9146 46.2356 14.8039C46.123 14.6931 46.0586 14.5423 46.0566 14.3844V12.8418C46.0566 11.3429 46.3317 9.95458 46.9307 8.62025C47.5323 7.28334 48.4604 6.16497 49.7125 5.20086C50.9671 4.24189 52.6048 3.44231 54.5665 2.90755C56.4767 2.26481 58.8214 2 61.5467 2H61.5415Z" fill="#421405"/>
</g>
<defs>
<filter id="filter0_f_49_476" x="0" y="0" width="124" height="52" filterUnits="userSpaceOnUse" color-interpolation-filters="sRGB">
<feFlood flood-opacity="0" result="BackgroundImageFix"/>
<feBlend mode="normal" in="SourceGraphic" in2="BackgroundImageFix" result="shape"/>
<feGaussianBlur stdDeviation="1" result="effect1_foregroundBlur_49_476"/>
</filter>
</defs>
</svg>
